<svg width="73" height="38" viewBox="0 0 73 38" fill="none" xmlns="http://www.w3.org/2000/svg">
<path d="M37.4889 18.0637C37.4955 18.0355 37.479 18.0256 37.4575 18.0173C37.4624 17.8006 37.4542 17.5872 37.3764 17.3804C37.1067 16.6674 36.6963 16.0868 35.9334 15.8353C35.6603 15.6418 35.326 15.6699 35.0232 15.5806C35.0116 15.5624 35 15.5607 34.9851 15.5772C34.9421 15.5739 34.8991 15.5706 34.8544 15.5673L34.8395 15.5574L34.823 15.5673C34.7783 15.5673 34.7336 15.5673 34.6906 15.569L34.674 15.5591L34.6575 15.569C34.5317 15.5723 34.406 15.5772 34.2802 15.5806C34.2471 15.5442 34.2024 15.5524 34.1594 15.5524C34.0667 15.4449 34.166 15.3357 34.1577 15.2249C34.0965 14.4441 34.1346 13.6616 34.1197 12.8807C34.1164 12.7087 34.0948 12.54 34.0535 12.3729C33.8168 11.4101 32.8603 10.5035 31.6126 10.5134C28.1606 10.5399 24.7069 10.5234 21.2533 10.5234C20.8627 10.5234 20.4705 10.5201 20.08 10.5267C19.9344 10.53 19.8731 10.5052 19.888 10.3331C19.9112 10.0751 19.8996 9.81202 19.8913 9.55229C19.8599 8.55806 19.8698 7.56383 19.8847 6.56959C19.9161 6.52823 19.9112 6.49184 19.8748 6.4571C19.888 6.36942 19.9674 6.36446 20.027 6.33964C21.2135 5.84997 21.849 4.95169 21.9599 3.6878C22.0327 2.85238 21.7547 2.11787 21.1838 1.50744C20.2968 0.557871 19.1897 0.266714 17.9833 0.680289C16.8563 1.06739 16.153 1.89289 15.9809 3.11873C15.7923 4.45209 16.537 5.79042 17.7897 6.29829C17.9833 6.37604 18.0462 6.4753 18.0445 6.67381C18.0362 7.49104 18.0412 8.30661 18.0396 9.12383C18.0379 9.52086 18.0164 9.91789 18.0329 10.3133C18.0396 10.4903 18.0032 10.5399 17.8261 10.5399C13.9753 10.5349 10.1228 10.5349 6.27197 10.5333C5.11523 10.5333 4.09585 11.3307 3.88238 12.4655C3.7533 13.1769 3.81122 13.9097 3.81784 14.636C3.81949 14.9288 3.86417 15.2216 3.81618 15.5144C3.80791 15.5243 3.80294 15.5359 3.80129 15.5475C3.79963 15.5624 3.79963 15.5772 3.79798 15.5921C3.48356 15.5938 3.16914 15.5954 2.85472 15.5971C2.5916 15.6186 2.3351 15.6467 2.08687 15.7642C1.16347 16.2059 0.389002 17.1009 0.513115 18.3499C0.51146 18.3978 0.506496 18.4458 0.506496 18.4938C0.506496 22.1183 0.506496 25.7429 0.506496 29.3658C0.506496 29.4138 0.51146 29.4618 0.513115 29.5098C0.51808 29.8357 0.480018 30.1599 0.546212 30.4858C0.746448 31.4718 1.34881 32.0921 2.27552 32.4263C2.47245 32.5206 2.68096 32.5686 2.90105 32.5652C3.20058 32.5619 3.49845 32.5619 3.79798 32.5603C3.79467 32.5686 3.79301 32.5768 3.79632 32.5851C3.8046 32.6149 3.81453 32.643 3.8228 32.6728C3.79963 33.5231 3.80791 34.3717 3.83935 35.222C3.86252 35.8275 4.09089 36.3519 4.50956 36.7821C5.02587 37.3114 5.65802 37.5066 6.4027 37.5066C14.811 37.4951 23.2192 37.4984 31.6275 37.5033C31.9651 37.5033 32.2861 37.4603 32.6005 37.3362C33.3204 37.0534 33.749 36.4892 34.0187 35.8077C34.1114 35.5761 34.1246 35.2899 34.1213 35.0202C34.113 34.2973 34.1197 33.5744 34.118 32.8531C34.118 32.7571 34.1197 32.6628 34.166 32.5752C34.1958 32.5785 34.2256 32.5801 34.2554 32.5834L34.262 32.5917L34.2686 32.5851C34.6591 32.5818 35.0547 32.6331 35.4386 32.5107C36.7294 32.2294 37.5915 31.083 37.4922 29.7165C37.4922 29.6901 37.4922 29.6636 37.4922 29.6371C37.4922 29.609 37.4922 29.5809 37.4922 29.5528C37.4922 29.5395 37.4922 29.5263 37.4922 29.5131C37.4922 29.4585 37.4922 29.4039 37.4922 29.3476C37.4939 29.2864 37.4989 29.2252 37.4989 29.1623C37.4989 25.8868 37.4989 22.613 37.4989 19.3375C37.4989 18.9669 37.4955 18.598 37.4922 18.2274C37.4906 18.1728 37.4889 18.1183 37.4889 18.0637Z" fill="#FEFEFF"/>
<path d="M19.8879 6.56667C19.8714 7.5609 19.8631 8.55514 19.8946 9.54937C19.9028 9.8091 19.9144 10.0721 19.8913 10.3302C19.8764 10.5022 19.9376 10.5271 20.0832 10.5238C20.4738 10.5171 20.866 10.5204 21.2565 10.5204C24.7102 10.5204 28.1622 10.537 31.6158 10.5105C32.8619 10.5006 33.8201 11.4071 34.0567 12.37C34.0981 12.537 34.1196 12.7058 34.1229 12.8778C34.1378 13.6603 34.0997 14.4428 34.161 15.222C34.1692 15.3328 34.0699 15.4436 34.1626 15.5495C34.1643 15.5627 34.1643 15.576 34.1659 15.5892C34.0534 15.7464 34.1643 15.9068 34.1643 16.0657C34.161 21.2866 34.1643 26.5092 34.1659 31.7302C34.1659 31.8047 34.151 31.8791 34.1428 31.9519C34.1212 32.1587 34.0749 32.3704 34.1659 32.5739C34.1179 32.6616 34.1179 32.7559 34.1179 32.8518C34.1196 33.5748 34.113 34.2977 34.1212 35.019C34.1246 35.2886 34.1113 35.5748 34.0186 35.8064C33.7489 36.488 33.3203 37.0521 32.6004 37.335C32.286 37.459 31.965 37.5021 31.6274 37.5021C23.2191 37.4971 14.8109 37.4938 6.40263 37.5054C5.65795 37.507 5.0258 37.3118 4.50949 36.7808C4.09081 36.3507 3.86245 35.8263 3.83928 35.2208C3.80784 34.3721 3.79956 33.5218 3.82273 32.6715C3.85417 32.6682 3.87403 32.65 3.87072 32.6202C3.86576 32.5739 3.831 32.5739 3.79625 32.5838C3.7946 32.5756 3.7946 32.5673 3.79791 32.559C3.80287 32.4846 3.81115 32.4085 3.81115 32.334C3.81115 27.8972 3.80949 23.4587 3.80949 19.0219C3.80949 18.0541 3.81115 17.088 3.80784 16.1202C3.80784 15.9449 3.85914 15.7662 3.79791 15.5925C3.79956 15.5776 3.79956 15.5627 3.80122 15.5479C3.80618 15.5363 3.81115 15.5247 3.81611 15.5148C3.8641 15.222 3.81942 14.9292 3.81777 14.6363C3.81115 13.9101 3.75323 13.1756 3.88727 12.4609C4.10074 11.3244 5.12013 10.5287 6.27686 10.5287C10.1277 10.5287 13.9802 10.5304 17.831 10.5353C18.008 10.5353 18.0444 10.4857 18.0378 10.3087C18.0213 9.91332 18.0428 9.51629 18.0444 9.11925C18.0461 8.30203 18.0411 7.48646 18.0494 6.66924C18.0511 6.47072 17.9882 6.37312 17.7946 6.29371C16.5419 5.78584 15.7972 4.44917 15.9858 3.11415C16.1596 1.88831 16.8612 1.06282 17.9882 0.675713C19.1946 0.262138 20.3017 0.551641 21.1887 1.50286C21.7596 2.1133 22.0376 2.84781 21.9648 3.68323C21.8539 4.94711 21.2184 5.8454 20.0319 6.33507C19.9723 6.35988 19.8913 6.36485 19.8797 6.45252C19.8615 6.49223 19.7887 6.53689 19.8879 6.56667ZM26.9177 29.6723C26.9161 29.5945 26.878 29.5283 26.8432 29.4622C26.4908 28.7674 25.9132 28.4167 25.1437 28.3604C24.8938 28.3604 24.644 28.3604 24.3941 28.3604C23.7818 28.3604 23.1695 28.3604 22.5572 28.3621C22.4149 28.3621 22.2709 28.3472 22.1352 28.4018C21.9035 28.3124 21.6636 28.3753 21.4286 28.3604C20.7385 28.3604 20.0468 28.3604 19.3567 28.3604C19.1135 28.3604 18.8702 28.3604 18.6286 28.3604C17.9915 28.3621 17.3527 28.3637 16.7156 28.3654C16.6411 28.3654 16.5634 28.3554 16.4972 28.4051C16.4575 28.3356 16.3896 28.3604 16.3333 28.3587C16.1364 28.3571 15.9411 28.3604 15.7442 28.3604C15.079 28.3621 14.4137 28.3637 13.7485 28.3654C13.674 28.3654 13.5962 28.3554 13.53 28.4051C13.2835 28.3075 13.0286 28.3803 12.7771 28.3621C12.6894 28.3753 12.6033 28.3951 12.5156 28.4018C11.9033 28.4481 11.1653 29.0668 11.0014 29.6756C10.8508 30.0081 10.8856 30.3588 10.8972 30.7079C10.917 31.406 11.5376 32.1669 12.2492 32.3506C12.4081 32.3919 12.5686 32.4962 12.744 32.3985C13.0055 32.4912 13.2752 32.4151 13.54 32.4399C14.278 32.4399 15.0161 32.4399 15.7541 32.4399C16.009 32.4399 16.2622 32.4399 16.517 32.4399C17.2104 32.4399 17.9038 32.4399 18.5972 32.4416C18.8454 32.4416 19.0936 32.4416 19.3418 32.4416C20.027 32.4416 20.7121 32.4416 21.3972 32.4416C21.6537 32.4217 21.9168 32.4895 22.17 32.4019C22.2527 32.4432 22.3421 32.4382 22.4314 32.4382C23.0752 32.4382 23.7206 32.4416 24.3643 32.4432C24.6258 32.4234 24.8905 32.4895 25.147 32.4035C25.1934 32.4134 25.2397 32.4366 25.2844 32.4333C26.2955 32.3804 27.1279 31.3613 27.0253 30.5077C27.0435 30.2165 27.0336 29.9386 26.9177 29.6723ZM20.4853 25.563C20.765 25.5514 20.8858 25.4621 20.8957 25.2685C20.9024 25.1593 20.8511 25.0683 20.8047 24.979C20.3761 24.1618 19.9558 23.338 19.5073 22.5307C19.3849 22.309 19.3054 22.0542 19.1002 21.8805C18.9728 21.7713 18.8288 21.7879 18.718 21.9368C18.6088 22.0509 18.5343 22.1866 18.4615 22.3239C18.1504 22.9078 17.8277 23.4868 17.5265 24.0758C17.3478 24.4248 17.1475 24.7673 17.0151 25.1378C16.9208 25.4042 17.0118 25.5382 17.2948 25.5547C17.4255 25.5613 17.5546 25.5597 17.6853 25.5613C18.5277 25.5779 19.37 25.515 20.2106 25.5944C20.3 25.6027 20.4026 25.6358 20.4853 25.563ZM25.43 23.6655C27.4572 23.7648 29.4331 22.036 29.3023 19.6224C29.1981 17.71 27.6177 15.9697 25.4466 15.9681C23.3168 15.9681 21.6007 17.6703 21.5759 19.7845C21.5494 21.8888 23.3879 23.7763 25.43 23.6655ZM8.4927 19.7514C8.42154 21.7895 10.126 23.6241 12.1565 23.7002C14.4783 23.7863 16.1397 22.0575 16.2258 19.993C16.3184 17.801 14.5527 16.102 12.5851 15.9879C10.2865 15.8539 8.47946 17.7878 8.4927 19.7514ZM17.7251 3.50953C17.6307 4.22749 18.2811 4.82635 19.178 4.77341C19.4196 4.75852 19.648 4.57986 19.8416 4.39789C20.1544 4.10177 20.1709 3.72789 20.1626 3.33583C20.1511 2.82134 19.5437 2.30023 18.948 2.29031C18.3572 2.28038 17.6192 2.86104 17.7251 3.50953Z" fill="#8FA3AE"/>
<path d="M3.79783 15.5938C3.85906 15.7691 3.80776 15.9461 3.80776 16.1215C3.81107 17.0892 3.80941 18.0553 3.80941 19.0231C3.80941 23.4599 3.81107 27.8984 3.81107 32.3353C3.81107 32.4097 3.80279 32.4858 3.79783 32.5602C3.4983 32.5619 3.19878 32.5619 2.90091 32.5652C2.68081 32.5685 2.47396 32.5205 2.27537 32.4262C2.19594 32.1715 2.32337 31.9862 2.4723 31.8009C2.58979 31.6537 2.64606 31.4816 2.64771 31.2881C2.65102 30.8447 2.61462 30.413 2.4905 29.9812C2.39287 29.6421 2.15954 29.3674 1.82029 29.3459C1.75575 29.3426 1.70611 29.3162 1.6515 29.2847C1.49263 29.1937 1.3288 29.1789 1.17325 29.2947C1.1385 29.3195 1.10706 29.3492 1.06568 29.3426C0.853865 29.3095 0.673487 29.3741 0.512967 29.5097C0.511312 29.4617 0.506348 29.4138 0.506348 29.3658C0.506348 25.7412 0.506348 22.1167 0.506348 18.4937C0.506348 18.4458 0.511312 18.3978 0.512967 18.3498C0.671832 18.3779 0.695 18.5235 0.747955 18.636C0.804219 18.7568 0.875378 18.8114 1.01438 18.8064C1.28743 18.7965 1.56214 18.8014 1.83519 18.8047C1.92289 18.8064 2.00729 18.7948 2.05197 18.7171C2.24228 18.3796 2.55835 18.1132 2.50043 17.6434C2.47065 17.3953 2.59641 17.1157 2.87443 16.9801C3.01509 16.9122 3.06804 16.7848 3.05812 16.6409C3.02998 16.2852 3.04653 15.9196 2.85457 15.5954C3.16899 15.5971 3.48341 15.5954 3.79783 15.5938Z" fill="#C62727"/>
<path d="M34.166 32.5773C34.0734 32.3738 34.1197 32.162 34.1429 31.9552C34.1511 31.8825 34.166 31.808 34.166 31.7336C34.1644 26.5126 34.1611 21.29 34.1644 16.069C34.1644 15.9102 34.0535 15.7497 34.166 15.5926C34.2041 15.5876 34.2438 15.5843 34.2819 15.5793C34.4076 15.576 34.5334 15.5711 34.6592 15.5678L34.6757 15.576L34.6923 15.5661C34.737 15.5661 34.7816 15.5661 34.8247 15.5645L34.8396 15.5744L34.8561 15.5661C34.8991 15.5694 34.9422 15.5727 34.9868 15.576L35.005 15.5843L35.0249 15.5793C35.3277 15.6687 35.662 15.6422 35.9351 15.8341C35.9086 15.8755 35.8705 15.8887 35.8292 15.8655C35.6157 15.7431 35.4734 15.8407 35.3492 16.0128C35.3178 16.0558 35.2781 16.1004 35.2334 16.1236C35.0199 16.2344 34.9537 16.4131 34.9405 16.6431C34.9107 17.1923 35.1358 17.6671 35.3575 18.1435C35.3823 18.1964 35.4287 18.2626 35.4783 18.2775C35.715 18.347 35.9152 18.529 36.1916 18.481C36.3504 18.4529 36.5192 18.4777 36.6847 18.476C36.971 18.4744 37.2788 18.5422 37.4708 18.2328C37.4724 18.2295 37.484 18.2295 37.4906 18.2279C37.4923 18.5984 37.4972 18.9673 37.4972 19.3379C37.4972 22.6134 37.4972 25.8873 37.4972 29.1628C37.4972 29.224 37.4923 29.2852 37.4906 29.3481C37.4658 29.3398 37.4294 29.3381 37.4161 29.3216C37.1894 29.0354 36.8866 28.9725 36.544 29.0172C36.4762 29.0255 36.4067 29.0238 36.3388 29.0172C36.2031 29.0056 36.0989 29.0486 35.9864 29.138C35.7911 29.2935 35.6703 29.5102 35.4965 29.6855C35.3459 29.8361 35.2169 30.0462 35.1838 30.2844C35.1755 30.3423 35.1457 30.4316 35.106 30.4449C34.9339 30.5028 34.9256 30.6632 34.8594 30.7873C34.7022 31.0801 34.7998 31.3547 34.957 31.5896C35.1523 31.8825 35.3344 32.1736 35.4386 32.5111C35.0547 32.6335 34.6608 32.5822 34.2703 32.5855L34.2637 32.5756L34.2571 32.5855C34.2256 32.5822 34.1958 32.5789 34.166 32.5773Z" fill="#C62727"/>
<path d="M35.4368 32.5108C35.3326 32.175 35.1506 31.8822 34.9553 31.5894C34.7981 31.3545 34.7004 31.0782 34.8576 30.787C34.9255 30.6613 34.9321 30.5025 35.1042 30.4446C35.1439 30.4314 35.1737 30.342 35.182 30.2841C35.2151 30.0459 35.3442 29.8358 35.4948 29.6853C35.6685 29.5116 35.7893 29.2949 35.9846 29.1377C36.0971 29.0484 36.1997 29.0053 36.3371 29.0169C36.4049 29.0219 36.4744 29.0252 36.5423 29.0169C36.8848 28.9723 37.1877 29.0351 37.4144 29.3213C37.4293 29.3395 37.464 29.3395 37.4888 29.3478C37.4888 29.4024 37.4888 29.457 37.4888 29.5132C37.4839 29.5165 37.4756 29.5215 37.4756 29.5248C37.4789 29.5347 37.4839 29.5446 37.4888 29.5529C37.4888 29.581 37.4888 29.6092 37.4888 29.6373C37.4508 29.6638 37.4508 29.6902 37.4888 29.7167C37.5898 31.0831 36.7293 32.2296 35.4368 32.5108Z" fill="#D3192A"/>
<path d="M2.85472 15.5996C3.04668 15.9239 3.03013 16.2895 3.05826 16.6451C3.06985 16.7874 3.01524 16.9148 2.87458 16.9843C2.59656 17.1199 2.47079 17.3995 2.50058 17.6476C2.5585 18.1158 2.24243 18.3838 2.05212 18.7213C2.00744 18.799 1.92304 18.8089 1.83533 18.8089C1.56229 18.8056 1.28758 18.8007 1.01453 18.8106C0.875526 18.8156 0.806022 18.761 0.748103 18.6402C0.695148 18.5294 0.67198 18.3821 0.513115 18.354C0.389002 17.105 1.16347 16.21 2.08687 15.7683C2.3351 15.6492 2.5916 15.6211 2.85472 15.5996Z" fill="#D3192A"/>
<path d="M37.4905 18.2283C37.4839 18.2299 37.474 18.2283 37.4706 18.2333C37.2787 18.5426 36.9709 18.4731 36.6846 18.4764C36.5208 18.4781 36.352 18.4533 36.1915 18.4814C35.9151 18.5294 35.7149 18.3474 35.4782 18.2779C35.4286 18.263 35.3822 18.1969 35.3574 18.1439C35.1373 17.6675 34.9106 17.1927 34.9404 16.6435C34.9536 16.4152 35.0198 16.2349 35.2333 16.124C35.2796 16.1009 35.3193 16.0562 35.3491 16.0132C35.4732 15.8428 35.6156 15.7435 35.829 15.8659C35.8688 15.8891 35.9085 15.8759 35.935 15.8345C36.6978 16.086 37.1082 16.6666 37.378 17.3796C37.4558 17.5864 37.464 17.7998 37.4591 18.0165C37.469 18.0314 37.4806 18.048 37.4905 18.0629C37.4888 18.1191 37.4905 18.1737 37.4905 18.2283Z" fill="#D3192A"/>
<path d="M0.513133 29.5114C0.673653 29.3758 0.854031 29.3113 1.06585 29.3444C1.10888 29.351 1.14032 29.3229 1.17342 29.2964C1.32897 29.1806 1.4928 29.1955 1.65166 29.2865C1.70627 29.3179 1.75592 29.3427 1.82046 29.3477C2.1597 29.3692 2.39303 29.6438 2.49067 29.9829C2.61478 30.4147 2.65119 30.8465 2.64788 31.2898C2.64623 31.4834 2.58996 31.6554 2.47247 31.8027C2.32353 31.9879 2.19611 32.1732 2.27554 32.428C1.34717 32.0938 0.746466 31.4734 0.54623 30.4875C0.481691 30.1599 0.518098 29.8357 0.513133 29.5114Z" fill="#D3192A"/>
<path d="M3.79785 32.5873C3.83426 32.5774 3.86735 32.5774 3.87232 32.6237C3.87563 32.6551 3.85577 32.6717 3.82433 32.675C3.8144 32.6452 3.80613 32.6171 3.79785 32.5873Z" fill="#F0F0F0"/>
<path d="M19.8879 6.56659C19.7886 6.53682 19.8614 6.4938 19.8779 6.4541C19.9143 6.48884 19.9193 6.52524 19.8879 6.56659Z" fill="#F0F0F0"/>
<path d="M34.2803 15.5795C34.2422 15.5844 34.2025 15.5877 34.1644 15.5927C34.1628 15.5795 34.1611 15.5662 34.1611 15.553C34.2025 15.553 34.2472 15.5431 34.2803 15.5795Z" fill="#F0F0F0"/>
<path d="M37.4905 29.7171C37.4524 29.6906 37.4524 29.6642 37.4905 29.6377C37.4905 29.6625 37.4905 29.689 37.4905 29.7171Z" fill="#C62727"/>
<path d="M37.4905 29.5514C37.4856 29.5415 37.4806 29.5332 37.4773 29.5233C37.4773 29.5216 37.4856 29.515 37.4905 29.5117C37.4905 29.525 37.4905 29.5382 37.4905 29.5514Z" fill="#C62727"/>
<path d="M3.81616 15.5166C3.8112 15.5282 3.80623 15.5398 3.80127 15.5497C3.80292 15.5381 3.80789 15.5265 3.81616 15.5166Z" fill="#F0F0F0"/>
<path d="M37.489 18.0639C37.479 18.049 37.4674 18.0325 37.4575 18.0176C37.479 18.0242 37.4972 18.0358 37.489 18.0639Z" fill="#C62727"/>
<path d="M35.0232 15.5796L35.0033 15.5846L34.9851 15.5763C35 15.5598 35.0116 15.5631 35.0232 15.5796Z" fill="#F0F0F0"/>
<path d="M34.8561 15.5675L34.8396 15.5758L34.8247 15.5659L34.8396 15.5576L34.8561 15.5675Z" fill="#F0F0F0"/>
<path d="M34.6906 15.5675L34.6741 15.5775L34.6592 15.5675L34.6741 15.5576L34.6906 15.5675Z" fill="#F0F0F0"/>
<path d="M34.2554 32.5849L34.2618 32.5752L34.2682 32.5849L34.2618 32.5913L34.2554 32.5849Z" fill="#8FA3AE"/>
<path d="M25.43 23.6652C23.3879 23.7761 21.5494 21.8885 21.5742 19.7842C21.599 17.67 23.3151 15.9678 25.4449 15.9678C27.6161 15.9678 29.1964 17.7097 29.3007 19.6221C29.4347 22.0374 27.4572 23.7661 25.43 23.6652ZM28.5577 19.0514C28.4882 18.6461 28.3359 18.2805 28.0844 17.9496C27.3943 17.0398 26.4726 16.5948 25.3406 16.5948C24.97 16.5948 24.6042 16.6725 24.2551 16.8197C23.5071 17.1357 22.9395 17.6386 22.5423 18.3516C22.2229 18.924 22.1865 19.5344 22.2229 20.1614C22.2875 20.302 22.2345 20.4575 22.2726 20.6031C22.4927 21.4352 22.9891 22.0672 23.6825 22.5552C24.0201 22.7918 24.3924 22.9555 24.8094 22.9936C24.9253 23.0366 25.0444 23.0449 25.1685 23.0515C25.4912 23.068 25.809 23.0366 26.1267 22.9952C26.4875 22.9522 26.8118 22.7901 27.108 22.6081C27.909 22.1151 28.4137 21.3889 28.6156 20.4675C28.6818 20.1664 28.7513 19.8554 28.6404 19.5444C28.6371 19.5179 28.6354 19.4898 28.6321 19.4633C28.6503 19.3194 28.6172 19.1837 28.5577 19.0514Z" fill="#494949"/>
<path d="M8.49263 19.7514C8.47939 17.7894 10.2848 15.8555 12.5867 15.9879C14.5543 16.102 16.32 17.801 16.2274 19.9929C16.1397 22.0558 14.4798 23.7846 12.1581 23.7002C10.1276 23.6241 8.42147 21.7878 8.49263 19.7514ZM11.9579 23.0368C12.317 23.0898 12.6728 23.0865 13.0286 23.0038C13.4108 22.9442 13.755 22.7804 14.081 22.5869C14.5593 22.3023 14.92 21.897 15.1832 21.409C15.3999 21.007 15.5671 20.5885 15.5737 20.122C15.63 19.4735 15.529 18.8482 15.2096 18.2824C14.8489 17.6438 14.321 17.1723 13.6359 16.8795C12.6479 16.4577 11.6848 16.5057 10.7581 17.0317C9.75196 17.6041 9.19428 18.4776 9.12643 19.6422C9.11319 19.8705 9.09168 20.1021 9.16449 20.3271C9.16615 20.7605 9.34653 21.1377 9.56497 21.4901C9.91083 22.0492 10.3758 22.4992 10.9749 22.7788C11.2827 22.921 11.6037 23.06 11.9579 23.0368Z" fill="#494949"/>
<path d="M20.4856 25.563C20.4028 25.6375 20.3002 25.6044 20.2109 25.5961C19.3702 25.5167 18.5279 25.5779 17.6856 25.563C17.5548 25.5597 17.4241 25.563 17.295 25.5564C17.012 25.5399 16.9194 25.4059 17.0154 25.1395C17.1477 24.7673 17.348 24.4265 17.5267 24.0775C17.8279 23.4886 18.1506 22.9095 18.4617 22.3256C18.5345 22.1866 18.6106 22.051 18.7182 21.9385C18.8406 21.9699 18.7927 22.0708 18.7927 22.142C18.796 22.7226 18.7993 23.3049 18.791 23.8856C18.7893 24.0411 18.8373 24.0891 18.9896 24.0824C19.2213 24.0709 19.4546 24.0775 19.6879 24.0791C20.0967 24.0824 20.4392 24.4282 20.4425 24.8318C20.4458 25.075 20.4243 25.3215 20.4856 25.563Z" fill="#D3192A"/>
<path d="M17.7251 3.50938C17.6175 2.8609 18.3573 2.28024 18.948 2.29016C19.5438 2.30009 20.1511 2.82119 20.1627 3.33568C20.171 3.7261 20.1544 4.09997 19.8417 4.39774C19.648 4.58137 19.4213 4.76003 19.1781 4.77327C18.2828 4.82455 17.6308 4.22735 17.7251 3.50938Z" fill="#C62727"/>
<path d="M24.366 32.4332C23.7222 32.4316 23.0768 32.4299 22.4331 32.4283C22.3437 32.4283 22.2544 32.4332 22.1716 32.3919C22.1716 31.7881 22.1733 31.1842 22.1733 30.5804C22.5572 30.6367 22.9395 30.5804 23.3234 30.5771C23.6527 30.5738 23.987 30.6449 24.3147 30.5391C24.3378 30.5953 24.2849 30.6879 24.3908 30.7078C24.3842 31.1859 24.3759 31.6623 24.3693 32.1404C24.3693 32.157 24.3693 32.1752 24.3676 32.1917C24.3676 32.2728 24.366 32.3538 24.366 32.4332Z" fill="#F0F0F0"/>
<path d="M21.3971 32.4331C20.712 32.4331 20.0269 32.4331 19.3418 32.4331C19.3451 32.2776 19.3501 32.1204 19.3501 31.9649C19.3517 31.4752 19.3501 30.9872 19.3501 30.4975C19.456 30.4893 19.5222 30.5918 19.6364 30.5852C20.2222 30.5455 20.8163 30.6613 21.3971 30.5009C21.3988 31.1444 21.3988 31.7896 21.3971 32.4331Z" fill="#F0F0F0"/>
<path d="M15.7542 32.4328C15.0162 32.4328 14.2781 32.4328 13.54 32.4328C13.5417 32.3584 13.5433 32.284 13.5433 32.2095C13.5433 31.7215 13.5433 31.2335 13.5433 30.7438C14.1093 30.7438 14.6753 30.7405 15.2412 30.7471C15.4117 30.7488 15.5871 30.8182 15.7476 30.7041C15.7509 30.7785 15.7559 30.853 15.7559 30.9274C15.7559 31.4303 15.7559 31.9316 15.7542 32.4328Z" fill="#F0F0F0"/>
<path d="M18.5972 32.4332C17.9038 32.4332 17.2105 32.4332 16.5171 32.4315C16.5187 32.3091 16.5171 32.1867 16.5204 32.0659C16.5336 31.6259 16.4741 31.1859 16.5204 30.7458C16.6064 30.759 16.6941 30.7855 16.7802 30.7839C17.0748 30.7772 17.3677 30.7557 17.6622 30.7475C17.9833 30.7392 18.3142 30.7987 18.5972 30.582C18.5956 31.1991 18.5972 31.8161 18.5972 32.4332Z" fill="#F0F0F0"/>
<path d="M22.1353 28.4C22.2726 28.3454 22.4166 28.3603 22.5572 28.3603C23.1695 28.3586 23.7818 28.3586 24.3941 28.3586C24.3875 28.9078 24.3825 29.4571 24.3759 30.0063C24.3246 29.9897 24.2617 29.9881 24.2237 29.955C24.0466 29.8094 23.8447 29.7912 23.6263 29.7962C23.1431 29.8061 22.6565 29.783 22.175 29.8409C22.1617 29.3611 22.1485 28.8814 22.1353 28.4Z" fill="#F0F0F0"/>
<path d="M22.1353 28.4003C22.1486 28.88 22.1618 29.3598 22.175 29.8412C22.1552 30.0877 22.1552 30.3358 22.1734 30.5823C22.1734 31.1861 22.1717 31.7899 22.1717 32.3938C21.9185 32.4814 21.6554 32.4136 21.3989 32.4335C21.3989 31.7883 21.3989 31.1448 21.3989 30.4996C21.4221 30.2928 21.4204 30.086 21.3989 29.8792C21.4436 29.373 21.3791 28.8635 21.4287 28.3573C21.6637 28.3755 21.9037 28.3109 22.1353 28.4003Z" fill="#494949"/>
<path d="M16.5205 30.7457C16.4758 31.1858 16.5337 31.6258 16.5205 32.0659C16.5171 32.1883 16.5188 32.3107 16.5171 32.4315C16.2623 32.4315 16.0075 32.4315 15.7543 32.4315C15.7559 31.9302 15.7559 31.4273 15.7559 30.926C15.7559 30.8516 15.7493 30.7772 15.7476 30.7027C15.7708 30.3454 15.7592 29.9897 15.7443 29.6324C15.7443 29.2072 15.7427 28.7821 15.7427 28.3569C15.9396 28.3553 16.1349 28.3536 16.3318 28.3553C16.3897 28.3553 16.4559 28.3321 16.4956 28.4016C16.5039 28.8267 16.5122 29.2502 16.5205 29.6754C16.5039 30.0327 16.4758 30.3901 16.5205 30.7457Z" fill="#494949"/>
<path d="M24.3761 30.0061C24.3827 29.4569 24.3877 28.9076 24.3943 28.3584C24.6442 28.3584 24.8941 28.3584 25.1439 28.3584C25.1439 28.8117 25.1439 29.2633 25.1423 29.7166C25.129 30.0177 25.1208 30.3204 25.1439 30.6215C25.1456 31.2121 25.1472 31.8026 25.1472 32.3932C24.8891 32.4776 24.6243 32.4131 24.3645 32.4329C24.3662 32.3519 24.3662 32.2725 24.3678 32.1914C24.3926 32.1749 24.3926 32.1583 24.3695 32.1401C24.3761 31.662 24.3844 31.1856 24.391 30.7075C24.4191 30.595 24.4208 30.4825 24.3893 30.37C24.3844 30.2493 24.381 30.1285 24.3761 30.0061Z" fill="#494949"/>
<path d="M13.5434 30.7459C13.5434 31.2339 13.5434 31.722 13.5434 32.2116C13.5434 32.2861 13.5401 32.3605 13.5401 32.435C13.2753 32.4102 13.0056 32.4863 12.7441 32.3936C12.7557 32.3357 12.7756 32.2778 12.7772 32.2183C12.7805 31.7418 12.7789 31.2637 12.7789 30.7873C12.7789 30.4448 12.7789 30.1024 12.7789 29.7583C12.7789 29.2918 12.7789 28.8253 12.7789 28.3588C13.0288 28.377 13.2853 28.3042 13.5318 28.4018C13.5368 28.8534 13.5401 29.3067 13.5451 29.7583C13.5219 30.0875 13.5186 30.4167 13.5434 30.7459Z" fill="#494949"/>
<path d="M13.5416 29.7596C13.5366 29.308 13.5333 28.8547 13.5283 28.4031C13.5945 28.3551 13.6706 28.365 13.7468 28.3634C14.412 28.3617 15.0773 28.3601 15.7425 28.3584C15.7425 28.7836 15.7442 29.2087 15.7442 29.6339C15.4347 29.6818 15.1269 29.7232 14.8108 29.7215C14.3872 29.7199 13.9619 29.6719 13.5416 29.7596Z" fill="#F0F0F0"/>
<path d="M18.5974 32.4329C18.5974 31.8159 18.5957 31.1988 18.5957 30.5818C18.6238 30.3485 18.6222 30.1153 18.599 29.882C18.6404 29.8059 18.6222 29.7215 18.6189 29.6421C18.6073 29.2137 18.5907 28.7852 18.6271 28.3584C18.8704 28.3584 19.1137 28.3584 19.3569 28.3584C19.3453 28.7968 19.3288 29.2368 19.3553 29.6752C19.3305 29.9482 19.3271 30.2228 19.352 30.4974C19.352 30.9871 19.3536 31.4751 19.352 31.9648C19.352 32.1203 19.347 32.2774 19.3437 32.4329C19.0938 32.4329 18.8456 32.4329 18.5974 32.4329Z" fill="#494949"/>
<path d="M19.3553 29.6772C19.3288 29.2371 19.3453 28.7987 19.3569 28.3604C20.047 28.3604 20.7387 28.3604 21.4288 28.3604C21.3775 28.8666 21.442 29.3761 21.399 29.8823C21.159 29.8161 20.9257 29.7516 20.6675 29.7516C20.2307 29.7516 19.7839 29.8294 19.3553 29.6772Z" fill="#F0F0F0"/>
<path d="M18.627 28.3584C18.589 28.7869 18.6072 29.2153 18.6188 29.6421C18.6204 29.7215 18.6403 29.8043 18.5989 29.882C18.5608 29.8737 18.5013 29.877 18.4864 29.8539C18.3788 29.6802 18.2166 29.6719 18.0379 29.6736C17.5315 29.6785 17.0268 29.6752 16.5204 29.6769C16.5122 29.2517 16.5039 28.8282 16.4956 28.4031C16.5618 28.3551 16.6379 28.3634 16.714 28.3634C17.3512 28.3617 17.9899 28.3601 18.627 28.3584Z" fill="#F0F0F0"/>
<path d="M25.1488 32.3949C25.1472 31.8043 25.1455 31.2137 25.1455 30.6231C25.5178 30.7091 25.8952 30.6479 26.2708 30.6645C26.5372 30.676 26.8053 30.6909 27.0287 30.499C27.1313 31.3526 26.2989 32.3717 25.2878 32.4246C25.2415 32.4263 25.1952 32.4048 25.1488 32.3949Z" fill="#F0F0F0"/>
<path d="M20.4854 25.5626C20.4242 25.3211 20.444 25.0746 20.4424 24.8298C20.4391 24.4245 20.0965 24.0804 19.6878 24.0771C19.4544 24.0754 19.2227 24.0688 18.9894 24.0804C18.8372 24.0886 18.7892 24.039 18.7908 23.8835C18.7991 23.3028 18.7958 22.7205 18.7925 22.1399C18.7925 22.0687 18.8405 21.9678 18.718 21.9364C18.8272 21.7875 18.9729 21.771 19.1003 21.8802C19.3055 22.0539 19.3849 22.3103 19.5074 22.5303C19.9558 23.3376 20.3762 24.1598 20.8048 24.9787C20.8528 25.068 20.9024 25.159 20.8958 25.2682C20.8859 25.4617 20.7667 25.5494 20.4854 25.5626Z" fill="#C62727"/>
<path d="M12.7773 30.7875C12.7773 31.2639 12.779 31.742 12.7757 32.2185C12.7757 32.2764 12.7541 32.3359 12.7426 32.3938C12.5671 32.4931 12.4083 32.3872 12.2478 32.3458C11.5362 32.1622 10.9156 31.4029 10.8958 30.7031C11.5163 30.8851 12.1551 30.6634 12.7773 30.7875Z" fill="#F0F0F0"/>
<path d="M12.7772 30.7869C12.155 30.6628 11.5162 30.8845 10.8973 30.7042C10.8857 30.3551 10.851 30.0044 11.0016 29.6719C11.4285 29.7546 11.8604 29.705 12.2907 29.7182C12.4545 29.7232 12.62 29.6983 12.7772 29.7596C12.7772 30.102 12.7772 30.4444 12.7772 30.7869Z" fill="#FEFEFF"/>
<path d="M25.1438 29.7185C25.1438 29.2653 25.1438 28.8136 25.1455 28.3604C25.9133 28.4166 26.4908 28.7673 26.845 29.4621C26.8781 29.5283 26.9161 29.5945 26.9194 29.6722C26.3287 29.75 25.7346 29.7053 25.1438 29.7185Z" fill="#F0F0F0"/>
<path d="M12.7771 29.7586C12.6182 29.6974 12.4528 29.7222 12.2906 29.7173C11.8603 29.704 11.4284 29.7537 11.0015 29.6709C11.1653 29.0638 11.9034 28.4434 12.5156 28.3971C12.6034 28.3905 12.6911 28.3707 12.7771 28.3574C12.7771 28.8256 12.7771 29.2921 12.7771 29.7586Z" fill="#F0F0F0"/>
<path d="M25.1438 29.7185C25.7346 29.7069 26.3287 29.7499 26.9178 29.6738C27.0337 29.9385 27.0436 30.2181 27.027 30.4993C26.8036 30.6896 26.5356 30.6747 26.2691 30.6648C25.8935 30.6482 25.5162 30.7111 25.1438 30.6234C25.1223 30.3207 25.1306 30.0196 25.1438 29.7185Z" fill="#FEFEFF"/>
<path d="M22.2246 20.1633C22.1882 19.5347 22.2246 18.9259 22.544 18.3535C22.9411 17.6405 23.5087 17.1376 24.2567 16.8217C24.6059 16.6744 24.9716 16.5967 25.3423 16.5967C26.4742 16.5967 27.396 17.04 28.086 17.9516C28.3359 18.2824 28.4898 18.648 28.5593 19.0533C28.5163 19.2022 28.4269 19.361 28.6338 19.4652C28.6371 19.4917 28.6387 19.5198 28.642 19.5463C28.5394 19.5595 28.5692 19.6406 28.5593 19.7051C28.5179 19.9516 28.508 20.2014 28.3971 20.438C28.187 20.8896 28.1208 21.4041 27.7269 21.7713C27.3877 22.0856 27.0782 22.4231 26.6397 22.615C26.4494 22.6994 26.2276 22.7738 26.1283 22.9955C25.8106 23.0385 25.4929 23.07 25.1702 23.0518C25.0461 23.0451 24.9269 23.0352 24.8111 22.9939C24.7945 22.9211 24.735 22.8781 24.6804 22.8433C24.5182 22.7457 24.351 22.6597 24.1856 22.5687C24.0432 22.4893 23.8877 22.4364 23.7669 22.3156C23.3863 21.9401 22.913 21.6522 22.6796 21.141C22.5804 20.921 22.4016 20.7357 22.4165 20.4644C22.4215 20.3404 22.4281 20.1733 22.2246 20.1633Z" fill="#FEFEFF"/>
<path d="M26.1267 22.9951C26.2243 22.7734 26.4477 22.699 26.6381 22.6146C27.0749 22.4211 27.386 22.0852 27.7253 21.7709C28.1191 21.4037 28.187 20.8892 28.3955 20.4376C28.5047 20.201 28.5163 19.9512 28.5577 19.7047C28.5676 19.6418 28.5378 19.5608 28.6404 19.5459C28.7496 19.8569 28.6801 20.1679 28.6156 20.469C28.4137 21.3888 27.909 22.1167 27.108 22.6097C26.8118 22.79 26.4875 22.9504 26.1267 22.9951Z" fill="#F0F0F0"/>
<path d="M22.2246 20.1631C22.4282 20.173 22.4215 20.3401 22.4149 20.4642C22.4 20.7355 22.5787 20.9208 22.678 21.1408C22.9114 21.6503 23.3847 21.9398 23.7653 22.3153C23.8877 22.4361 24.0416 22.4907 24.1839 22.5684C24.3494 22.6594 24.5182 22.7454 24.6787 22.843C24.7334 22.8761 24.7929 22.9191 24.8095 22.9936C24.3908 22.9572 24.0201 22.7934 23.6825 22.5552C22.9891 22.0688 22.4927 21.4352 22.2726 20.6031C22.2345 20.4592 22.2891 20.3037 22.2246 20.1631Z" fill="#F0F0F0"/>
<path d="M28.6322 19.4656C28.427 19.3598 28.5164 19.2026 28.5578 19.0537C28.6173 19.1844 28.6504 19.3201 28.6322 19.4656Z" fill="#F0F0F0"/>
<path d="M9.16782 20.3276C9.09501 20.1026 9.11652 19.8693 9.12976 19.6427C9.19761 18.4781 9.75529 17.6029 10.7614 17.0322C11.6865 16.5061 12.6513 16.4582 13.6392 16.88C14.3243 17.1728 14.8506 17.6443 15.213 18.2829C15.5323 18.847 15.6333 19.474 15.577 20.1224C15.448 20.1903 15.3636 20.316 15.3487 20.4401C15.3172 20.6965 15.213 20.9297 15.1037 21.1448C14.8175 21.7122 14.4037 22.1754 13.8196 22.4715C13.5366 22.6155 13.2454 22.7544 13.0319 23.0042C12.6777 23.0869 12.3203 23.0919 11.9612 23.0373C11.9744 22.9447 11.9082 22.9248 11.8404 22.9033C11.4829 22.7974 11.1503 22.6337 10.8227 22.46C10.4288 22.2532 10.1475 21.9405 9.92409 21.5666C9.73378 21.2507 9.6047 20.9049 9.42929 20.5823C9.3664 20.4781 9.33993 20.3259 9.16782 20.3276Z" fill="#FEFEFF"/>
<path d="M9.16797 20.3272C9.34007 20.3239 9.3682 20.4777 9.42447 20.5836C9.59988 20.9062 9.73061 21.252 9.91927 21.5679C10.1443 21.9418 10.4256 22.2528 10.8178 22.4612C11.1472 22.6349 11.4781 22.7987 11.8356 22.9046C11.9034 22.9244 11.9696 22.9443 11.9564 23.0386C11.6006 23.0618 11.2812 22.9228 10.9751 22.7805C10.376 22.5009 9.91099 22.051 9.56513 21.4918C9.35 21.1378 9.16962 20.7606 9.16797 20.3272Z" fill="#F0F0F0"/>
<path d="M13.0286 23.0039C13.242 22.7541 13.5333 22.6151 13.8163 22.4712C14.3988 22.1751 14.8125 21.7119 15.1004 21.1444C15.2096 20.9294 15.3139 20.6961 15.3453 20.4397C15.3602 20.3156 15.4446 20.1899 15.5737 20.1221C15.5671 20.5886 15.4 21.0088 15.1832 21.4091C14.92 21.8971 14.5593 22.3041 14.081 22.587C13.755 22.7805 13.4108 22.946 13.0286 23.0039Z" fill="#F0F0F0"/>
<path d="M24.3759 30.0064C24.3809 30.1272 24.3842 30.2496 24.3891 30.3703C24.2799 30.3885 24.3362 30.4812 24.313 30.5391C23.987 30.645 23.6527 30.5738 23.3218 30.5771C22.9378 30.5804 22.5556 30.6383 22.1717 30.5804C22.1535 30.3339 22.1535 30.0858 22.1733 29.8393C22.6565 29.7814 23.1414 29.8062 23.6246 29.7946C23.843 29.7897 24.0449 29.8079 24.222 29.9535C24.2617 29.9882 24.3246 29.9899 24.3759 30.0064Z" fill="#FEFEFF"/>
<path d="M24.313 30.5408C24.3345 30.4829 24.2799 30.3903 24.3891 30.3721C24.4206 30.4846 24.4172 30.5971 24.3908 30.7095C24.2832 30.6897 24.3378 30.5971 24.313 30.5408Z" fill="#8FA3AE"/>
<path d="M24.3693 32.1426C24.3925 32.1608 24.3925 32.1773 24.3677 32.1939C24.3693 32.1757 24.3693 32.1591 24.3693 32.1426Z" fill="#8FA3AE"/>
<path d="M19.3552 29.6768C19.7854 29.829 20.2306 29.7512 20.6675 29.7495C20.9256 29.7495 21.1589 29.8141 21.3989 29.8802C21.4204 30.087 21.4221 30.2938 21.3989 30.5006C20.818 30.6611 20.224 30.5453 19.6381 30.585C19.524 30.5932 19.4578 30.489 19.3519 30.4973C19.327 30.2243 19.3287 29.9497 19.3552 29.6768Z" fill="#FEFEFF"/>
<path d="M13.5416 29.7598C13.9619 29.6721 14.3872 29.7201 14.8108 29.7234C15.1269 29.7251 15.4347 29.6837 15.7442 29.6357C15.7591 29.9931 15.7706 30.3487 15.7475 30.7061C15.587 30.8202 15.4132 30.7507 15.2411 30.7491C14.6751 30.7425 14.1092 30.7458 13.5432 30.7458C13.5184 30.4166 13.5217 30.0874 13.5416 29.7598Z" fill="#FEFEFF"/>
<path d="M16.5205 29.6773C17.0269 29.6773 17.5316 29.6806 18.038 29.674C18.2151 29.6723 18.3789 29.6806 18.4865 29.8543C18.5014 29.8775 18.5609 29.8742 18.599 29.8824C18.6222 30.1157 18.6238 30.3489 18.5957 30.5822C18.3127 30.7973 17.9818 30.7377 17.6607 30.7476C17.3662 30.7559 17.0732 30.7774 16.7787 30.784C16.6926 30.7857 16.6066 30.7592 16.5189 30.746C16.4758 30.3903 16.504 30.033 16.5205 29.6773Z" fill="#FEFEFF"/>
<g clip-path="url(#clip0_133_3642)">
<path d="M72.5 34.3811C72.5 36.0992 71.107 37.4922 69.3889 37.4922H47.6111C45.893 37.4922 44.5 36.0992 44.5 34.3811V12.6033C44.5 10.8852 45.893 9.49219 47.6111 9.49219H69.3889C71.107 9.49219 72.5 10.8852 72.5 12.6033V34.3811Z" fill="#77B255"/>
<path d="M67.2734 14.4403C66.3743 13.8562 65.1703 14.1121 64.5839 15.0128L56.117 28.0631L52.2055 24.4464C51.4169 23.7169 50.1864 23.7659 49.4577 24.5538C48.7289 25.3424 48.7771 26.5729 49.5658 27.3017L55.1728 32.4863C55.5461 32.8324 56.0205 33.0036 56.4919 33.0036C57.0153 33.0036 57.685 32.7842 58.1244 32.1177C58.3827 31.7241 67.8467 17.1299 67.8467 17.1299C68.4308 16.2284 68.1741 15.0244 67.2734 14.4403Z" fill="white"/>
</g>
<defs>
<clipPath id="clip0_133_3642">
<rect width="28" height="28" fill="white" transform="translate(44.5 9.49219)"/>
</clipPath>
</defs>
</svg>
